HIERARCHY
ROOT hips
{
  OFFSET 0 10.6860622 2.3727825e-15
  CHANNELS 6 Xposition Yposition Zposition Yrotation Xrotation Zrotation
  JOINT leftUpperLeg
  {
    OFFSET 0.6642549969 -0.9402397400000004 0
    CHANNELS 3 Yrotation Xrotation Zrotation
    JOINT leftLowerLeg
    {
      OFFSET 0 -3.997221335632195 0
      CHANNELS 3 Yrotation Xrotation Zrotation
      JOINT leftFoot
      {
        OFFSET -0.13777839790000004 -4.6145792000000005 -0.22186036399999998
        CHANNELS 3 Yrotation Xrotation Zrotation
        JOINT leftToes
        {
          OFFSET -0.03777410834999995 -0.9130806927000008 0.85230013
          CHANNELS 3 Yrotation Xrotation Zrotation
          End Site
          {
            OFFSET -0.03777410834999995 -0.9130806927000008 0.85230013
          }
        }
      }
    }
  }
  JOINT rightUpperLeg
  {
    OFFSET -0.6642778626 -0.9402397400000004 0
    CHANNELS 3 Yrotation Xrotation Zrotation
    JOINT rightLowerLeg
    {
      OFFSET 0 -3.997221452859387 0
      CHANNELS 3 Yrotation Xrotation Zrotation
      JOINT rightFoot
      {
        OFFSET 0.1377926176 -4.6145792000000005 -0.22185782299999995
        CHANNELS 3 Yrotation Xrotation Zrotation
        JOINT rightToes
        {
          OFFSET 0.037780746850000047 -0.9130806927000008 0.85230167
          CHANNELS 3 Yrotation Xrotation Zrotation
          End Site
          {
            OFFSET 0.037780746850000047 -0.9130806927000008 0.85230167
          }
        }
      }
    }
  }
  JOINT spine
  {
    OFFSET 0 0.13988381660000015 0
    CHANNELS 3 Yrotation Xrotation Zrotation
    JOINT chest
    {
      OFFSET 0 0.6191039003973773 0
      CHANNELS 3 Yrotation Xrotation Zrotation
      JOINT upperChest
      {
        OFFSET 0 0.9855186130586943 0
        CHANNELS 3 Yrotation Xrotation Zrotation
        JOINT leftShoulder
        {
          OFFSET 0.1807663869 1.5087829790000005 0
          CHANNELS 3 Yrotation Xrotation Zrotation
          JOINT leftUpperArm
          {
            OFFSET 0.5985063006419806 0 0
            CHANNELS 3 Yrotation Xrotation Zrotation
            JOINT leftLowerArm
            {
              OFFSET 2.2993332369501065 0 0
              CHANNELS 3 Yrotation Xrotation Zrotation
              JOINT leftHand
              {
                OFFSET 2.395047042602395 0 0
                CHANNELS 3 Yrotation Xrotation Zrotation
                JOINT leftIndexProximal
                {
                  OFFSET 0.5766295810000004 0.04556643899499946 0.17265095988184
                  CHANNELS 3 Yrotation Xrotation Zrotation
                  JOINT leftIndexIntermediate
                  {
                    OFFSET 0.2957229000000008 -0.019352197700001517 -0.007932640616999987
                    CHANNELS 3 Yrotation Xrotation Zrotation
                    JOINT leftIndexDistal
                    {
                      OFFSET 0.19008243099999922 -0.012484908149998475 -0.002786250786000012
                      CHANNELS 3 Yrotation Xrotation Zrotation
                      End Site
                      {
                        OFFSET 0.19008243099999922 -0.012484908149998475 -0.002786250786000012
                      }
                    }
                  }
                }
                JOINT leftMiddleProximal
                {
                  OFFSET 0.5834975091000001 0.0524350405149987 0.02204081888183999
                  CHANNELS 3 Yrotation Xrotation Zrotation
                  JOINT leftMiddleIntermediate
                  {
                    OFFSET 0.33880573540000003 -0.019871473270000717 -0.00000971183179999946
                    CHANNELS 3 Yrotation Xrotation Zrotation
                    JOINT leftMiddleDistal
                    {
                      OFFSET 0.20676022730000088 -0.012221336379999448 0.0001471936708000235
                      CHANNELS 3 Yrotation Xrotation Zrotation
                      End Site
                      {
                        OFFSET 0.20676022730000088 -0.012221336379999448 0.0001471936708000235
                      }
                    }
                  }
                }
                JOINT leftLittleProximal
                {
                  OFFSET 0.5344154683999995 -0.012880921405001189 -0.24414037221816004
                  CHANNELS 3 Yrotation Xrotation Zrotation
                  JOINT leftLittleIntermediate
                  {
                    OFFSET 0.21758961730000093 -0.011650919939999227 0.011893592810000034
                    CHANNELS 3 Yrotation Xrotation Zrotation
                    JOINT leftLittleDistal
                    {
                      OFFSET 0.1475273964999999 -0.008152365682999818 0.006001092492999946
                      CHANNELS 3 Yrotation Xrotation Zrotation
                      End Site
                      {
                        OFFSET 0.1475273964999999 -0.008152365682999818 0.006001092492999946
                      }
                    }
                  }
                }
                JOINT leftRingProximal
                {
                  OFFSET 0.5799399463000003 0.026911854694997794 -0.12150566991816003
                  CHANNELS 3 Yrotation Xrotation Zrotation
                  JOINT leftRingIntermediate
                  {
                    OFFSET 0.26167887460000006 -0.013480186499999602 0.010996293000000053
                    CHANNELS 3 Yrotation Xrotation Zrotation
                    JOINT leftRingDistal
                    {
                      OFFSET 0.17667108799999987 -0.008990287899999228 0.0055541023999999065
                      CHANNELS 3 Yrotation Xrotation Zrotation
                      End Site
                      {
                        OFFSET 0.17667108799999987 -0.008990287899999228 0.0055541023999999065
                      }
                    }
                  }
                }
                JOINT leftThumbProximal
                {
                  OFFSET 0.11018806699999972 -0.09448718900500053 0.17047963138184
                  CHANNELS 3 Yrotation Xrotation Zrotation
                  JOINT leftThumbIntermediate
                  {
                    OFFSET 0.31062601459999983 -0.08126270900000132 0.15443142000000007
                    CHANNELS 3 Yrotation Xrotation Zrotation
                    JOINT leftThumbDistal
                    {
                      OFFSET 0.21627175790000086 -0.08833193599999878 0.018771167799999988
                      CHANNELS 3 Yrotation Xrotation Zrotation
                      End Site
                      {
                        OFFSET 0.21627175790000086 -0.08833193599999878 0.018771167799999988
                      }
                    }
                  }
                }
              }
            }
          }
        }
        JOINT neck
        {
          OFFSET 0 1.5463305265074576 0
          CHANNELS 3 Yrotation Xrotation Zrotation
          JOINT head
          {
            OFFSET 0 0.8456443600000344 0
            CHANNELS 3 Yrotation Xrotation Zrotation
            JOINT leftEye
            {
              OFFSET 0.30408573140000006 0.5104519199999995 0.1276382305
              CHANNELS 3 Yrotation Xrotation Zrotation
              End Site
              {
                OFFSET 0.30408573140000006 0.5104519199999995 0.1276382305
              }
            }
            JOINT rightEye
            {
              OFFSET -0.30409491089999996 0.5104519199999995 0.1276379445
              CHANNELS 3 Yrotation Xrotation Zrotation
              End Site
              {
                OFFSET -0.30409491089999996 0.5104519199999995 0.1276379445
              }
            }
            JOINT jaw
            {
              OFFSET -3.155239131000001e-7 -0.11984121820000082 0.60178107
              CHANNELS 3 Yrotation Xrotation Zrotation
              End Site
              {
                OFFSET -3.155239131000001e-7 -0.11984121820000082 0.60178107
              }
            }
          }
        }
        JOINT rightShoulder
        {
          OFFSET -0.1807303465 1.5087829790000005 0
          CHANNELS 3 Yrotation Xrotation Zrotation
          JOINT rightUpperArm
          {
            OFFSET -0.5985063796536958 0 0
            CHANNELS 3 Yrotation Xrotation Zrotation
            JOINT rightLowerArm
            {
              OFFSET -2.2993322059002854 0 0
              CHANNELS 3 Yrotation Xrotation Zrotation
              JOINT rightHand
              {
                OFFSET -2.395045314457259 0 0
                CHANNELS 3 Yrotation Xrotation Zrotation
                JOINT rightIndexProximal
                {
                  OFFSET -0.5764487688300002 0.0441371204405987 0.17361932004999997
                  CHANNELS 3 Yrotation Xrotation Zrotation
                  JOINT rightIndexIntermediate
                  {
                    OFFSET -0.29573011380000047 -0.01934826376999843 -0.007698921482999974
                    CHANNELS 3 Yrotation Xrotation Zrotation
                    JOINT rightIndexDistal
                    {
                      OFFSET -0.19008373999999884 -0.012503266380000655 -0.0026365778999999897
                      CHANNELS 3 Yrotation Xrotation Zrotation
                      End Site
                      {
                        OFFSET -0.19008373999999884 -0.012503266380000655 -0.0026365778999999897
                      }
                    }
                  }
                }
                JOINT rightMiddleProximal
                {
                  OFFSET -0.5834852037300005 0.05211639405060153 0.02307162440000001
                  CHANNELS 3 Yrotation Xrotation Zrotation
                  JOINT rightMiddleIntermediate
                  {
                    OFFSET -0.33880114510000003 -0.019952774050000954 0.0002455003561999819
                    CHANNELS 3 Yrotation Xrotation Zrotation
                    JOINT rightMiddleDistal
                    {
                      OFFSET -0.20675694929999955 -0.012273788999999091 0.00030209124000002766
                      CHANNELS 3 Yrotation Xrotation Zrotation
                      End Site
                      {
                        OFFSET -0.20675694929999955 -0.012273788999999091 0.00030209124000002766
                      }
                    }
                  }
                }
                JOINT rightLittleProximal
                {
                  OFFSET -0.5346811737299992 -0.011214256288399227 -0.24363941305000003
                  CHANNELS 3 Yrotation Xrotation Zrotation
                  JOINT rightLittleIntermediate
                  {
                    OFFSET -0.21757715980000092 -0.011771559690000988 0.01201554387
                    CHANNELS 3 Yrotation Xrotation Zrotation
                    JOINT rightLittleDistal
                    {
                      OFFSET -0.1475201849000004 -0.00822055339600003 0.006082065407000015
                      CHANNELS 3 Yrotation Xrotation Zrotation
                      End Site
                      {
                        OFFSET -0.1475201849000004 -0.00822055339600003 0.006082065407000015
                      }
                    }
                  }
                }
                JOINT rightRingProximal
                {
                  OFFSET -0.5800810755299999 0.027657985680600072 -0.12066365025000003
                  CHANNELS 3 Yrotation Xrotation Zrotation
                  JOINT rightRingIntermediate
                  {
                    OFFSET -0.26166445029999974 -0.013623118409999302 0.011164098990000045
                    CHANNELS 3 Yrotation Xrotation Zrotation
                    JOINT rightRingDistal
                    {
                      OFFSET -0.17666387530000027 -0.009072900100000503 0.005668185599999959
                      CHANNELS 3 Yrotation Xrotation Zrotation
                      End Site
                      {
                        OFFSET -0.17666387530000027 -0.009072900100000503 0.005668185599999959
                      }
                    }
                  }
                }
                JOINT rightThumbProximal
                {
                  OFFSET -0.10997596379000074 -0.09577489355940072 0.16989765924999997
                  CHANNELS 3 Yrotation Xrotation Zrotation
                  JOINT rightThumbIntermediate
                  {
                    OFFSET -0.31036620999999986 -0.08229339117999834 0.15440884469999996
                    CHANNELS 3 Yrotation Xrotation Zrotation
                    JOINT rightThumbDistal
                    {
                      OFFSET -0.21631306399999906 -0.08825326400000111 0.018656797720000014
                      CHANNELS 3 Yrotation Xrotation Zrotation
                      End Site
                      {
                        OFFSET -0.21631306399999906 -0.08825326400000111 0.018656797720000014
                      }
                    }
                  }
                }
              }
            }
          }
        }
      }
    }
  }
}
MOTION
Frames: 4
Frame Time: 0.03333333333333333
0.5737624168395996 -0.285476071765137 -1.1046422719955444 -23.2152013311336 4.359390923211426 -1.326350282760335 9.953333894205011 -20.781137166977352 5.484679631179967 7.512302916035305 23.36607518258433 5.664431775153619 19.63031530273839 -3.329406240562902 -9.746794068759565 0.0000032670573667502905 0.2892807378728141 -0.0000017642256016587807 -7.980060038058257 -13.497064597930901 -1.2540818249168177 -6.509203620590656 19.5796970507678 -5.068330312101172 -3.5009261265572227 -9.362158569314564 8.13959265765673 -0.000009982625759600617 -0.11926404693555415 0.000003544244312860505 1.1894738345906766 1.0703953809709752 0.2234383530442581 3.010971230682062 3.1666731422964767 0.19952838394674383 0 0 0 -10.2190392783717 1.7816890443201543 -8.672739887896933 -13.854084249855811 3.569937273110546 -60.60247710934767 -11.150713547749756 0.01397300804293316 0.14312253965550173 -0.8419227634724363 0.6437409969920309 -8.28325546251093 4.327553186817972 0.5585713661615865 -23.904131926935456 2.701351214622337 0.7695322577756218 -31.798413433482338 1.7293807222716928 0.30056083801694256 -19.71923340255343 8.495911191670325 2.4543348343964815 -25.433736862436795 3.4148721374182216 1.3027804477239961 -41.75617522963684 2.027092725641294 0.4178709693364085 -23.295538796481964 12.272999760421019 3.338442720076608 -45.364892549153815 2.399904751440156 0.5965292968309679 -27.915210700994702 0.8883060398029118 0.0775569684524329 -9.981753799524189 8.112075102623118 2.988941492203736 -35.17763209096257 2.9987785899733717 0.9685950264214961 -35.79570025077537 2.1546971335421192 0.4748832503478251 -24.857010461292607 -5.776293005202488 0.6587859941998301 19.22944824702249 27.683443413434844 17.0574800402066 7.424171410452067 -1.1999240441493826 3.1915575322111076 4.20822937478781 0.03342923714403153 -12.45126975439439 3.152471320957717 11.001409565072617 9.419456519251778 -1.116049008676712 0 0 0 0 0 0 0 0 0 17.313196616014558 1.7462480062907293 10.986849400991005 3.6128221100692306 -7.358373430639935 67.83402480543256 9.003925017872685 0.009123391871865744 -0.11582675839711168 1.8975349881410981 8.682645141066573 7.45897871990509 -2.7303201931859737 -0.001563252667933176 17.65099031591347 -1.933037407467266 0.5092050431123251 29.513466665809442 -1.0557965020604312 0.14474052025883935 15.610754135117066 -0.7326339729129687 -0.8201118487778514 21.02235026376722 -2.345999464179058 0.7785568817859987 36.713664308497336 -1.859380692098853 0.46854627421636846 28.28547180045363 -0.5263708793826836 -2.593032584293399 39.586023228367445 -1.9517172912211955 0.5198558719424553 29.827226652577792 -0.9185010174901616 0.10902717386697915 13.539272037096296 -2.0037034765004775 -1.248455986396295 38.44184379482595 -1.5120552292176088 0.3030778243286878 22.66669627482826 -1.4164902825072703 0.26462087869295925 21.162814841748567 -11.940377594105296 -13.202005151244181 -2.454999240534511 -21.261613268260568 12.837414227892271 -11.458978750303276 -4.279795807939205 3.1276801197221467 -22.621489274795174
0.4645121991634369 -0.29372249357910185 -1.2025129795074463 -23.127732700563772 4.094000767636361 -0.8299923852516252 9.730447377651611 -20.596060416759062 5.693835803770955 7.477972928820489 22.794751865237362 5.901960843569908 19.670347880476236 -2.157360313698738 -10.126978242053568 0.0000016602299477095215 0.3262454551555288 3.946235167024807e-7 -7.727880286245434 -14.198263303105144 -0.8061303272396303 -6.772187858026725 21.06507283300017 -5.514849084060986 -3.8045844440065038 -10.074974280072846 7.536940982999329 -0.000004834644397881678 -0.02915107187746027 -0.0000016452255119791348 1.0034402153420556 1.145426127883493 0.6165959753746323 2.5891276207458134 3.347065136298145 0.5365782551900962 0 0 0 -10.425305017772029 1.7891943702345026 -8.44424125929191 -14.389887544001278 3.815197702983188 -62.474531606636425 -12.352723186996549 0.017139221057052456 0.1583399902407457 -1.091274665316303 0.28073739953603993 -9.174764673078828 4.188333955625553 0.4316936510993419 -23.360920978566863 2.6992331044830453 0.7682322703476551 -31.770573767886358 1.735058708802763 0.3026028260616455 -19.786623342054938 8.351115542270671 2.3552305049996978 -25.080062975773004 3.4096312329707117 1.298106006970241 -41.67787896137295 2.0269693084687934 0.41782275652372863 -23.293976891462904 12.230191261733315 3.3047839911345864 -45.33488568612101 2.385299885002971 0.5888138652213765 -27.730850449160982 0.8876312134429091 0.07744142876001725 -9.974085362520153 8.04001539369591 2.9263777141294693 -35.02279982574839 2.9913949487041487 0.9632851871578361 -35.69432444519105 2.152877634271327 0.47403110167127094 -24.834724575571844 -5.776293005202488 0.6587859941998301 19.22944824702249 27.596071286877866 17.045140166494367 7.428905667614902 -1.281044737747204 3.1584208048511067 4.296332534020942 0.1330797446899978 -12.467539077639852 3.2527104940885345 11.754472223753313 8.975246357089985 -1.4747739621201124 0 0 0 0 0 0 0 0 0 17.18768824729301 1.7620833234634041 10.992468990930305 4.386687470097006 -7.298812563677238 67.5208820956951 10.889194523428946 0.01332593264456868 -0.1398022520595383 2.9143630799518294 7.8201766537581925 6.689594887721335 -2.7008721472507187 -0.01395913422076941 17.85748448472192 -1.9655029489409384 0.5278019551978093 30.059503568189772 -1.055708194987354 0.1447038879164716 15.609509588058847 -0.728091372370181 -0.8278460235167152 21.124282384515578 -2.344877272110538 0.7777070851964114 36.693382189042126 -1.8613806154695327 0.4696276681422839 28.31842404837778 -0.5135318886765224 -2.6224110497731816 39.748030188865386 -1.9569842133147959 0.522882624829866 29.91596792411035 -0.9140383986399353 0.1079578671487604 13.472133479778517 -1.997920624123246 -1.259788277293854 38.530004094563765 -1.5115469531170622 0.3028580812644053 22.65868697474743 -1.417231774958391 0.26491807513637805 21.174495456259503 -11.940377594105296 -13.202005151244181 -2.454999240534511 -21.32577579528523 12.875611725047625 -11.447907243281591 -4.3899521097767895 3.1243185066452397 -22.466329277126732
0.42882218956947327 -0.2970136236450198 -1.234955072402954 -23.00879430267453 4.033798798744355 -0.6550379535757352 9.658782609959538 -20.57700664585766 5.749528237824698 7.467338295080405 22.60022699473129 5.9601282080589355 19.572494924041855 -1.7623015658434642 -10.228009008468122 0.0000016905598007500566 0.32670996892094883 0.0000016734721580614528 -7.722516413870376 -14.45005457100168 -0.7008909489394525 -6.844900894051232 21.559746880413986 -5.580708694267454 -3.9167022206422404 -10.318201273689416 7.303595885358481 -0.000011860626919973142 -0.0027507006911289354 -0.0000015544743710157097 0.9389294656962139 1.16430647155947 0.7460625648349819 2.443111108208859 3.391507878407411 0.661499855790521 0 0 0 -10.500477086279236 1.7776468241923142 -8.509483204017485 -14.739451646555572 3.9431038873419695 -62.945296564472116 -12.79125894633094 0.018377701499257833 0.16385195640257594 -1.257200587256624 0.30020318198528784 -9.330069882918842 4.185491234139652 0.42831501354781865 -23.368046360670213 2.7032196346291117 0.7706994184184235 -31.822976305057374 1.7263879621552398 0.2994913384598795 -19.683749481494875 8.319426528031775 2.3380693503751573 -25.055536586970838 3.410288762984055 1.2986985713049204 -41.68763845487991 2.0268368112518975 0.4177566940315718 -23.29237529738807 12.21275413789249 3.2864823274237436 -45.28862626529566 2.3853180129301483 0.5888094360367041 -27.73095280753343 0.8884918197283699 0.07760568695578361 -9.983722567270519 8.035152883218567 2.9212853688840745 -35.00004395403606 2.9916706324457887 0.9634894813810575 -35.697906681435065 2.151166620161008 0.4732485913877149 -24.813720439763458 -5.776293005202488 0.6587859941998301 19.22944824702249 27.647506146854834 17.053604206855102 7.4262007146126 -1.2610916138735437 3.166477115386169 4.275770107495106 0.15290565715243815 -12.432197638955863 3.275005459214981 11.922097618072996 8.724065667183938 -1.706987298816813 0 0 0 0 0 0 0 0 0 17.156622589577353 1.7648785148638324 11.002842401986754 4.567585858829805 -7.271939088848001 67.395403015503 11.362577415108035 0.01450862762553008 -0.1457986886312977 3.1873533994680265 7.483061274171692 6.47200933547618 -2.710453082028847 -0.011284152932682916 17.883261938528474 -1.9542907481788296 0.5213374971823652 29.870504012762783 -1.055664553080133 0.1446978848013769 15.60886409719196 -0.7344612742576124 -0.8269945623249015 21.150787332983928 -2.3479254231747166 0.7799963172064436 36.748825328153686 -1.8603417194994034 0.46906437207988516 28.30126244428385 -0.5279580591839145 -2.6112512629539526 39.76005948690438 -1.9587253811013012 0.5238794471505863 29.945096244537048 -0.9114532151049474 0.10733820648077598 13.433515248710062 -1.9911261655380035 -1.2660126251956705 38.540958782152174 -1.5103711187604094 0.30236253879253816 22.640105444866343 -1.4160894074193535 0.26447568226453283 21.1566233544463 -11.940377594105296 -13.202005151244181 -2.454999240534511 -21.35021852999669 12.890168728396398 -11.443730137468187 -4.378856297613264 3.1271709391780735 -22.48395919931573
0.32769832015037537 -0.3042625021240237 -1.3329747915267944 -22.49502336353619 3.9716713936533923 -0.08948433732548625 9.578426610642971 -20.753651032570524 5.956055936387436 7.392366171357922 22.149679142257853 5.857561135593467 18.95271224138725 -0.622106066510379 -10.544587778139194 -0.000016560828016188787 0.32263142673103096 0.0000016090056323336472 -7.826713831815318 -15.223543891855776 -0.49433791582205555 -7.0265018099096315 22.80628604737118 -5.61834874954183 -4.269842091996699 -10.909267397828428 6.554236654965293 0.000005179322313487973 -0.000005957498296960071 -0.0000017745950136324352 0.7816174209623289 1.1973391591215838 1.117551962730739 2.083925869287311 3.4689393787174074 1.0676513728233166 0 0 0 -10.60111630569065 1.728092276177083 -8.94153160384282 -16.00460851769213 4.065719563579188 -64.12451755559766 -14.005605310032937 0.021997620275856777 0.17912832347133556 -1.9069019234605795 0.7670680988549056 -8.686112899756239 4.186585137325989 0.42749355366961156 -23.41543265947291 2.6930942480128546 0.764439255100353 -31.6898736733949 1.717731293720214 0.2963969274427467 -19.58105841079952 8.312719489067732 2.3193383094365685 -24.861956518791125 3.4097899677538197 1.2982519329968938 -41.68019436728072 2.023761907016542 0.41643523085590106 -23.25485037191149 12.26425157912764 3.3654337787858797 -45.24872079556445 2.3879064669691217 0.5901950239195098 -27.763905235671714 0.889007223270614 0.07768164619961926 -9.989589007532292 8.079116951123021 2.9429122339353615 -34.866364462816904 2.9771372800124127 0.9530787102671222 -35.498251753454696 2.1384541579575194 0.467390599678258 -24.657199355734438 -5.776293005202488 0.6587859941998301 19.22944824702249 27.78231744564149 17.07539029309129 7.419070899919407 -1.1615881954938563 3.2071910157049075 4.169092755041696 0.2366200116101651 -12.372550127853636 3.166341644324078 12.156458609847174 8.135411094859405 -2.265585891454184 0 0 0 0 0 0 0 0 0 17.103339772770898 1.7838585728008916 10.908165520523147 4.891871366163873 -7.264071530013566 67.05658379867036 11.997448988049573 0.016151391566427895 -0.15387580044723412 3.477282404908899 7.067501325319477 5.948321490135401 -2.7712670704863043 0.0066098743126568405 18.005498186151353 -1.9104954350003391 0.49653668868297485 29.13626624836136 -1.0556359564263262 0.14468805303288082 15.608371985848217 -0.7520304646170316 -0.8224609281266299 21.188173604246064 -2.3466349562615014 0.7790315170569537 36.72533888926507 -1.8629174680794316 0.47044721169876313 28.344031379363557 -0.5754717415345055 -2.5684774815834084 39.75294493055869 -1.9560455681116653 0.5223364004176274 29.900085300460262 -0.9102447368097739 0.10706134988107681 13.415239809758306 -2.02763158312879 -1.2397854718514218 38.57560377079497 -1.5117433289561277 0.3029447405004916 22.661840466037827 -1.4153357745759994 0.26418307491383913 21.14478128905574 -11.940377594105296 -13.202005151244181 -2.454999240534511 -21.2053959927507 12.80399946143168 -11.46875806561873 -4.258013850227277 3.1337107856890567 -22.65006776147925
